<?xml version="1.0" encoding="UTF-8" standalone="no"?>
<!-- Created with Inkscape (http://www.inkscape.org/) -->

<svg
   width="225.85753mm"
   height="129.94261mm"
   viewBox="0 0 225.85752 129.94261"
   version="1.1"
   id="svg1"
   xml:space="preserve"
   inkscape:version="1.4 (e7c3feb100, 2024-10-09)"
   sodipodi:docname="circuit.svg"
   xmlns:inkscape="http://www.inkscape.org/namespaces/inkscape"
   xmlns:sodipodi="http://sodipodi.sourceforge.net/DTD/sodipodi-0.dtd"
   xmlns="http://www.w3.org/2000/svg"
   xmlns:svg="http://www.w3.org/2000/svg"><sodipodi:namedview
     id="namedview1"
     pagecolor="#ffffff"
     bordercolor="#000000"
     borderopacity="0.25"
     inkscape:showpageshadow="2"
     inkscape:pageopacity="0.0"
     inkscape:pagecheckerboard="0"
     inkscape:deskcolor="#d1d1d1"
     inkscape:document-units="mm"
     inkscape:zoom="0.7006045"
     inkscape:cx="448.89806"
     inkscape:cy="226.94687"
     inkscape:window-width="1463"
     inkscape:window-height="842"
     inkscape:window-x="0"
     inkscape:window-y="0"
     inkscape:window-maximized="1"
     inkscape:current-layer="layer1"
     showguides="true" /><defs
     id="defs1" /><g
     inkscape:label="Layer 1"
     inkscape:groupmode="layer"
     id="layer1"
     transform="translate(-16.327305,-94.681445)"><path
       id="rect1"
       style="fill:#008080;stroke:none;stroke-width:1.216;stroke-dasharray:none"
       d="m 23.536684,94.681445 c -1.996446,0 -3.603398,1.606952 -3.603398,3.603398 V 219.64488 c 0,1.99644 1.606952,3.60339 3.603398,3.60339 H 238.58092 c 1.99645,0 3.60392,-1.60695 3.60392,-3.60339 V 98.284843 c 0,-1.996446 -1.60747,-3.603398 -3.60392,-3.603398 z M 226.09331,130.78312 a 0.96233261,0.96233261 0 0 1 0.96222,0.96273 0.96233261,0.96233261 0 0 1 -0.96222,0.96221 0.96233261,0.96233261 0 0 1 -0.96221,-0.96221 0.96233261,0.96233261 0 0 1 0.96221,-0.96273 z m -4.34547,4.54701 a 0.96233261,0.96233261 0 0 1 0.96222,0.96221 0.96233261,0.96233261 0 0 1 -0.96222,0.96222 0.96233261,0.96233261 0 0 1 -0.96221,-0.96222 0.96233261,0.96233261 0 0 1 0.96221,-0.96221 z m 8.69094,0 a 0.96233261,0.96233261 0 0 1 0.96222,0.96221 0.96233261,0.96233261 0 0 1 -0.96222,0.96222 0.96233261,0.96233261 0 0 1 -0.96221,-0.96222 0.96233261,0.96233261 0 0 1 0.96221,-0.96221 z m -4.34547,4.54649 a 0.96233261,0.96233261 0 0 1 0.96222,0.96221 0.96233261,0.96233261 0 0 1 -0.96222,0.96222 0.96233261,0.96233261 0 0 1 -0.96221,-0.96222 0.96233261,0.96233261 0 0 1 0.96221,-0.96221 z m -102.08317,6.16758 a 1.0900527,1.0900527 0 0 1 1.09037,1.09037 1.0900527,1.0900527 0 0 1 -1.09037,1.08986 1.0900527,1.0900527 0 0 1 -1.08986,-1.08986 1.0900527,1.0900527 0 0 1 1.08986,-1.09037 z m 6.19962,0 a 1.0900527,1.0900527 0 0 1 1.09037,1.09037 1.0900527,1.0900527 0 0 1 -1.09037,1.08986 1.0900527,1.0900527 0 0 1 -1.08986,-1.08986 1.0900527,1.0900527 0 0 1 1.08986,-1.09037 z m -6.19962,5.85597 a 1.0900527,1.0900527 0 0 1 1.09037,1.08986 1.0900527,1.0900527 0 0 1 -1.09037,1.09037 1.0900527,1.0900527 0 0 1 -1.08986,-1.09037 1.0900527,1.0900527 0 0 1 1.08986,-1.08986 z m 6.19962,0 a 1.0900527,1.0900527 0 0 1 1.09037,1.08986 1.0900527,1.0900527 0 0 1 -1.09037,1.09037 1.0900527,1.0900527 0 0 1 -1.08986,-1.09037 1.0900527,1.0900527 0 0 1 1.08986,-1.08986 z m -6.19962,5.85546 a 1.0900527,1.0900527 0 0 1 1.09037,1.09037 1.0900527,1.0900527 0 0 1 -1.09037,1.08986 1.0900527,1.0900527 0 0 1 -1.08986,-1.08986 1.0900527,1.0900527 0 0 1 1.08986,-1.09037 z m 6.19962,0 a 1.0900527,1.0900527 0 0 1 1.09037,1.09037 1.0900527,1.0900527 0 0 1 -1.09037,1.08986 1.0900527,1.0900527 0 0 1 -1.08986,-1.08986 1.0900527,1.0900527 0 0 1 1.08986,-1.09037 z m -6.19962,5.85597 a 1.0900527,1.0900527 0 0 1 1.09037,1.08986 1.0900527,1.0900527 0 0 1 -1.09037,1.08986 1.0900527,1.0900527 0 0 1 -1.08986,-1.08986 1.0900527,1.0900527 0 0 1 1.08986,-1.08986 z m 6.19962,0 a 1.0900527,1.0900527 0 0 1 1.09037,1.08986 1.0900527,1.0900527 0 0 1 -1.09037,1.08986 1.0900527,1.0900527 0 0 1 -1.08986,-1.08986 1.0900527,1.0900527 0 0 1 1.08986,-1.08986 z m 98.51337,27.93835 a 0.96916395,0.96916395 0 0 1 0.96893,0.96893 0.96916395,0.96916395 0 0 1 -0.96893,0.96945 0.96916395,0.96916395 0 0 1 -0.96894,-0.96945 0.96916395,0.96916395 0 0 1 0.96894,-0.96893 z m 0,5.2064 a 0.96916395,0.96916395 0 0 1 0.96893,0.96893 0.96916395,0.96916395 0 0 1 -0.96893,0.96945 0.96916395,0.96916395 0 0 1 -0.96894,-0.96945 0.96916395,0.96916395 0 0 1 0.96894,-0.96893 z m 0,5.20589 a 0.96916395,0.96916395 0 0 1 0.96893,0.96945 0.96916395,0.96916395 0 0 1 -0.96893,0.96893 0.96916395,0.96916395 0 0 1 -0.96894,-0.96893 0.96916395,0.96916395 0 0 1 0.96894,-0.96945 z m 0,5.2064 a 0.96916395,0.96916395 0 0 1 0.96893,0.96945 0.96916395,0.96916395 0 0 1 -0.96893,0.96893 0.96916395,0.96916395 0 0 1 -0.96894,-0.96893 0.96916395,0.96916395 0 0 1 0.96894,-0.96945 z m -171.477392,5.20278 a 1.0415009,1.0415009 0 0 1 1.04128,1.04128 1.0415009,1.0415009 0 0 1 -1.04128,1.0418 1.0415009,1.0415009 0 0 1 -1.041797,-1.0418 1.0415009,1.0415009 0 0 1 1.041797,-1.04128 z m 0,5.59501 a 1.0415009,1.0415009 0 0 1 1.04128,1.04128 1.0415009,1.0415009 0 0 1 -1.04128,1.04179 1.0415009,1.0415009 0 0 1 -1.041797,-1.04179 1.0415009,1.0415009 0 0 1 1.041797,-1.04128 z" /><g
       id="g7"
       transform="matrix(0.81113832,0,0,0.81113832,-103.78104,38.040751)"><rect
         style="opacity:1;fill:#1a1a1a;stroke-width:2.93181"
         id="rect2"
         width="42.855705"
         height="42.855705"
         x="335.21634"
         y="127.65155"
         ry="3.0744171" /><text
         xml:space="preserve"
         style="font-size:7.44136px;font-family:'Droid Sans Ethiopic';-inkscape-font-specification:'Droid Sans Ethiopic';text-align:start;writing-mode:lr-tb;direction:ltr;text-anchor:start;opacity:1;fill:#f9f9f9;stroke-width:0.222626"
         x="340.03522"
         y="146.15991"
         id="text3"><tspan
           sodipodi:role="line"
           id="tspan3"
           style="font-style:normal;font-variant:normal;font-weight:normal;font-stretch:normal;font-size:7.44136px;font-family:'Nimbus Mono PS';-inkscape-font-specification:'Nimbus Mono PS, Normal';font-variant-ligatures:normal;font-variant-caps:normal;font-variant-numeric:normal;font-variant-east-asian:normal;fill:#f9f9f9;stroke-width:0.222626"
           x="340.03522"
           y="146.15991">Bab0719</tspan></text><circle
         style="opacity:1;fill:#333333;stroke-width:3"
         id="path3"
         cx="340.05655"
         cy="132.53497"
         r="1.9215107" /><g
         id="g6"
         style="opacity:0.445442;fill:#ffffff"
         transform="matrix(0.48535849,0,0,0.48535849,220.71174,107.41934)"><path
           id="path4"
           style="opacity:1;fill:#ffffff;stroke-width:3"
           inkscape:transform-center-x="0.36317708"
           inkscape:transform-center-y="-0.1613838"
           d="m 298.23829,106.33771 -0.83943,3.4271 -4.14125,1.57099 3.38056,2.09318 2.7202,-4.81792 z m 3.89806,6.31431 -5.4931,0.78012 0.38034,0.23581 0.21399,4.42406 3.3812,-2.86129 4.27396,1.16386 -0.55941,-1.36869 z"
           transform="matrix(0.81384452,0,0,0.81742015,64.583348,26.941433)" /><path
           sodipodi:type="star"
           style="opacity:1;fill:#ffffff;stroke-width:3"
           id="path5"
           inkscape:flatsided="false"
           sodipodi:sides="5"
           sodipodi:cx="313.34756"
           sodipodi:cy="115.04923"
           sodipodi:r1="6.8098512"
           sodipodi:r2="3.4049256"
           sodipodi:arg1="1.2847449"
           sodipodi:arg2="1.9130634"
           inkscape:rounded="0"
           inkscape:randomized="0"
           d="m 315.26908,121.58237 -3.06429,-3.32571 -4.47683,0.63889 2.21602,-3.94201 -1.99103,-4.06029 4.43386,0.88941 3.2463,-3.14828 0.52426,4.49169 3.99736,2.11455 -4.10986,1.8866 z"
           inkscape:transform-center-x="-0.59377947"
           inkscape:transform-center-y="0.059141186"
           transform="translate(-0.96075532,0.38430214)" /></g><text
         xml:space="preserve"
         style="font-size:6.29763px;font-family:'Droid Sans Ethiopic';-inkscape-font-specification:'Droid Sans Ethiopic';text-align:start;writing-mode:lr-tb;direction:ltr;text-anchor:start;opacity:0.772906;fill:#f9f9f9;stroke-width:0.188409"
         x="339.63782"
         y="153.94867"
         id="text6"><tspan
           sodipodi:role="line"
           id="tspan6"
           style="font-style:normal;font-variant:normal;font-weight:normal;font-stretch:normal;font-size:6.29763px;font-family:'Nimbus Mono PS';-inkscape-font-specification:'Nimbus Mono PS, Normal';font-variant-ligatures:normal;font-variant-caps:normal;font-variant-numeric:normal;font-variant-east-asian:normal;fill:#f9f9f9;stroke-width:0.188409"
           x="339.63782"
           y="153.94867">IC47290</tspan></text><path
         id="rect6"
         style="opacity:0.772906;fill:#ffffff;stroke-width:2.43898"
         d="m 360.83183,161.7788 v 0.78496 h 1.27003 c 1.3767,0 1.3767,1.93773 0,1.93773 h -0.92778 v 0.39302 l 2.02759,2.45312 h 1.23679 l 1.96183,-2.74788 v -1.37377 l -2.56415,3.60627 -1.34309,-1.59402 c 1.94893,-0.2245 1.959,-3.32053 0,-3.45943 z" /><g
         id="g92"
         style="opacity:0.445442;fill:#ffffff"
         transform="matrix(2.8797598,0,0,2.8797598,-672.99805,-187.21423)"><path
           id="path91"
           style="opacity:1;fill:#ffffff;stroke-width:3"
           inkscape:transform-center-x="0.36317708"
           inkscape:transform-center-y="-0.1613838"
           d="m 298.23829,106.33771 -0.83943,3.4271 -4.14125,1.57099 3.38056,2.09318 2.7202,-4.81792 z m 3.89806,6.31431 -5.4931,0.78012 0.38034,0.23581 0.21399,4.42406 3.3812,-2.86129 4.27396,1.16386 -0.55941,-1.36869 z"
           transform="matrix(0.81384452,0,0,0.81742015,64.583348,26.941433)" /><path
           sodipodi:type="star"
           style="opacity:1;fill:#ffffff;stroke-width:3"
           id="path92"
           inkscape:flatsided="false"
           sodipodi:sides="5"
           sodipodi:cx="313.34756"
           sodipodi:cy="115.04923"
           sodipodi:r1="6.8098512"
           sodipodi:r2="3.4049256"
           sodipodi:arg1="1.2847449"
           sodipodi:arg2="1.9130634"
           inkscape:rounded="0"
           inkscape:randomized="0"
           d="m 315.26908,121.58237 -3.06429,-3.32571 -4.47683,0.63889 2.21602,-3.94201 -1.99103,-4.06029 4.43386,0.88941 3.2463,-3.14828 0.52426,4.49169 3.99736,2.11455 -4.10986,1.8866 z"
           inkscape:transform-center-x="-0.59377947"
           inkscape:transform-center-y="0.059141186"
           transform="translate(-0.96075532,0.38430214)" /></g></g><g
       id="g9"
       transform="matrix(0.58823533,0,0,0.58823533,27.013841,41.320601)"><g
         id="g8"
         transform="matrix(0.36956524,0,0,0.36956524,93.491827,93.397742)"><circle
           style="opacity:1;fill:#4d4d4d;stroke-width:3"
           id="path7"
           cx="-75.458336"
           cy="47.274666"
           r="26.593918" /><circle
           style="opacity:1;fill:#999999;stroke-width:2.47826"
           id="circle7"
           cx="-75.458336"
           cy="47.274666"
           r="21.968889" /></g></g><g
       id="g13"
       transform="matrix(0.58823533,0,0,0.58823533,43.283527,41.320601)"><g
         id="g12"
         transform="matrix(0.36956524,0,0,0.36956524,93.491827,93.397742)"><circle
           style="opacity:1;fill:#4d4d4d;stroke-width:3"
           id="circle11"
           cx="-75.458336"
           cy="47.274666"
           r="26.593918" /><circle
           style="opacity:1;fill:#999999;stroke-width:2.47826"
           id="circle12"
           cx="-75.458336"
           cy="47.274666"
           r="21.968889" /></g></g><g
       id="g15"
       transform="matrix(0.58823533,0,0,0.58823533,83.45969,41.320601)"><g
         id="g14"
         transform="matrix(0.36956524,0,0,0.36956524,93.491827,93.397742)"><circle
           style="opacity:1;fill:#4d4d4d;stroke-width:3"
           id="circle13"
           cx="-75.458336"
           cy="47.274666"
           r="26.593918" /><circle
           style="opacity:1;fill:#999999;stroke-width:2.47826"
           id="circle14"
           cx="-75.458336"
           cy="47.274666"
           r="21.968889" /></g></g><g
       id="g17"
       transform="matrix(0.58823533,0,0,0.58823533,-3.0764103,88.988213)"><g
         id="g16"
         transform="matrix(0.36956524,0,0,0.36956524,93.491827,93.397742)"><circle
           style="opacity:1;fill:#4d4d4d;stroke-width:3"
           id="circle15"
           cx="-75.458336"
           cy="47.274666"
           r="26.593918" /><circle
           style="opacity:1;fill:#999999;stroke-width:2.47826"
           id="circle16"
           cx="-75.458336"
           cy="47.274666"
           r="21.968889" /></g></g><g
       id="g23"
       transform="translate(-6.3500003,-3.1750001)"><g
         id="g18"
         transform="matrix(0.58807778,0,0,0.58807778,127.9516,123.11519)"><rect
           style="opacity:1;fill:#333333;stroke-width:3.14748"
           id="rect17"
           width="48.073357"
           height="16.024452"
           x="-66.858292"
           y="124.85294"
           ry="2.3666565" /><text
           xml:space="preserve"
           style="font-style:normal;font-variant:normal;font-weight:normal;font-stretch:normal;font-size:7.01422px;font-family:'Nimbus Mono PS';-inkscape-font-specification:'Nimbus Mono PS, Normal';font-variant-ligatures:normal;font-variant-caps:normal;font-variant-numeric:normal;font-variant-east-asian:normal;text-align:start;writing-mode:lr-tb;direction:ltr;text-anchor:start;opacity:1;fill:#ffffff;stroke-width:0.209847"
           x="-60.166996"
           y="131.79027"
           id="text17"><tspan
             sodipodi:role="line"
             id="tspan17"
             style="fill:#ffffff;stroke-width:0.209847"
             x="-60.166996"
             y="131.79027">TAG</tspan></text><text
           xml:space="preserve"
           style="font-style:normal;font-variant:normal;font-weight:normal;font-stretch:normal;font-size:7.01422px;font-family:'Nimbus Mono PS';-inkscape-font-specification:'Nimbus Mono PS, Normal';font-variant-ligatures:normal;font-variant-caps:normal;font-variant-numeric:normal;font-variant-east-asian:normal;text-align:start;writing-mode:lr-tb;direction:ltr;text-anchor:start;opacity:1;fill:#b3b3b3;stroke-width:0.209847"
           x="-60.454578"
           y="138.34175"
           id="text18"><tspan
             sodipodi:role="line"
             id="tspan18"
             style="fill:#b3b3b3;stroke-width:0.209847"
             x="-60.454578"
             y="138.34175">0S2402C</tspan></text></g><g
         id="g20"
         transform="matrix(0.58807778,0,0,0.58807778,158.44655,123.11519)"><rect
           style="opacity:1;fill:#333333;stroke-width:3.14748"
           id="rect18"
           width="48.073357"
           height="16.024452"
           x="-66.858292"
           y="124.85294"
           ry="2.3666565" /><text
           xml:space="preserve"
           style="font-style:normal;font-variant:normal;font-weight:normal;font-stretch:normal;font-size:7.01422px;font-family:'Nimbus Mono PS';-inkscape-font-specification:'Nimbus Mono PS, Normal';font-variant-ligatures:normal;font-variant-caps:normal;font-variant-numeric:normal;font-variant-east-asian:normal;text-align:start;writing-mode:lr-tb;direction:ltr;text-anchor:start;opacity:1;fill:#ffffff;stroke-width:0.209847"
           x="-60.166996"
           y="131.79027"
           id="text19"><tspan
             sodipodi:role="line"
             id="tspan19"
             style="fill:#ffffff;stroke-width:0.209847"
             x="-60.166996"
             y="131.79027">TAG</tspan></text><text
           xml:space="preserve"
           style="font-style:normal;font-variant:normal;font-weight:normal;font-stretch:normal;font-size:7.01422px;font-family:'Nimbus Mono PS';-inkscape-font-specification:'Nimbus Mono PS, Normal';font-variant-ligatures:normal;font-variant-caps:normal;font-variant-numeric:normal;font-variant-east-asian:normal;text-align:start;writing-mode:lr-tb;direction:ltr;text-anchor:start;opacity:1;fill:#b3b3b3;stroke-width:0.209847"
           x="-60.454578"
           y="138.34175"
           id="text20"><tspan
             sodipodi:role="line"
             id="tspan20"
             style="fill:#b3b3b3;stroke-width:0.209847"
             x="-60.454578"
             y="138.34175">0S2402C</tspan></text></g><g
         id="g22"
         transform="matrix(0.58807778,0,0,0.58807778,188.07022,123.11519)"><rect
           style="opacity:1;fill:#333333;stroke-width:4.22431"
           id="rect20"
           width="48.073357"
           height="28.864815"
           x="-66.858292"
           y="124.85294"
           ry="1.7937535" /><text
           xml:space="preserve"
           style="font-style:normal;font-variant:normal;font-weight:normal;font-stretch:normal;font-size:7.01422px;font-family:'Nimbus Mono PS';-inkscape-font-specification:'Nimbus Mono PS, Normal';font-variant-ligatures:normal;font-variant-caps:normal;font-variant-numeric:normal;font-variant-east-asian:normal;text-align:start;writing-mode:lr-tb;direction:ltr;text-anchor:start;opacity:1;fill:#ffffff;stroke-width:0.209847"
           x="-60.166996"
           y="133.58992"
           id="text21"><tspan
             sodipodi:role="line"
             id="tspan21"
             style="fill:#ffffff;stroke-width:0.209847"
             x="-60.166996"
             y="133.58992">TAG</tspan></text><text
           xml:space="preserve"
           style="font-style:normal;font-variant:normal;font-weight:normal;font-stretch:normal;font-size:7.01422px;font-family:'Nimbus Mono PS';-inkscape-font-specification:'Nimbus Mono PS, Normal';font-variant-ligatures:normal;font-variant-caps:normal;font-variant-numeric:normal;font-variant-east-asian:normal;text-align:start;writing-mode:lr-tb;direction:ltr;text-anchor:start;opacity:1;fill:#b3b3b3;stroke-width:0.209847"
           x="-60.454578"
           y="141.26289"
           id="text22"><tspan
             sodipodi:role="line"
             id="tspan22"
             style="fill:#b3b3b3;stroke-width:0.209847"
             x="-60.454578"
             y="141.26289">0S2402CIP</tspan></text><text
           xml:space="preserve"
           style="font-style:normal;font-variant:normal;font-weight:normal;font-stretch:normal;font-size:7.23251px;font-family:'Nimbus Mono PS';-inkscape-font-specification:'Nimbus Mono PS, Normal';font-variant-ligatures:normal;font-variant-caps:normal;font-variant-numeric:normal;font-variant-east-asian:normal;text-align:start;writing-mode:lr-tb;direction:ltr;text-anchor:start;opacity:1;fill:#b3b3b3;stroke-width:0.216378"
           x="-49.259472"
           y="148.86119"
           id="text23"><tspan
             sodipodi:role="line"
             id="tspan23"
             style="fill:#b3b3b3;stroke-width:0.216378"
             x="-49.259472"
             y="148.86119">1646TA</tspan></text></g></g><g
       id="g47"><rect
         style="fill:none;stroke:#ffffff;stroke-width:0.175;stroke-dasharray:none"
         id="rect23"
         width="6.5108352"
         height="23.798512"
         x="225.46753"
         y="188.4292"
         ry="0" /><path
         id="circle23"
         style="fill:#a0892c;stroke-width:0.462656"
         d="m 228.72301,190.70192 a 1.8171827,1.8171827 0 0 0 -1.81722,1.81721 1.8171827,1.8171827 0 0 0 1.81722,1.8171 1.8171827,1.8171827 0 0 0 1.81709,-1.8171 1.8171827,1.8171827 0 0 0 -1.81709,-1.81721 z m 0,0.84806 a 0.96916396,0.96916396 0 0 1 0.96916,0.96915 0.96916396,0.96916396 0 0 1 -0.96916,0.96916 0.96916396,0.96916396 0 0 1 -0.96916,-0.96916 0.96916396,0.96916396 0 0 1 0.96916,-0.96915 z" /><path
         id="path23"
         style="fill:#c8ab37;stroke-width:0.370123"
         d="m 228.72301,191.06534 a 1.4537461,1.4537461 0 0 0 -1.4538,1.45379 1.4537461,1.4537461 0 0 0 1.4538,1.45368 1.4537461,1.4537461 0 0 0 1.45368,-1.45368 1.4537461,1.4537461 0 0 0 -1.45368,-1.45379 z m 0,0.48464 a 0.96916396,0.96916396 0 0 1 0.96916,0.96915 0.96916396,0.96916396 0 0 1 -0.96916,0.96916 0.96916396,0.96916396 0 0 1 -0.96916,-0.96916 0.96916396,0.96916396 0 0 1 0.96916,-0.96915 z" /><path
         id="path26"
         style="fill:#a0892c;stroke-width:0.462656"
         d="m 228.72301,195.90817 a 1.8171827,1.8171827 0 0 0 -1.81722,1.81721 1.8171827,1.8171827 0 0 0 1.81722,1.8171 1.8171827,1.8171827 0 0 0 1.81709,-1.8171 1.8171827,1.8171827 0 0 0 -1.81709,-1.81721 z m 0,0.84806 a 0.96916396,0.96916396 0 0 1 0.96916,0.96915 0.96916396,0.96916396 0 0 1 -0.96916,0.96916 0.96916396,0.96916396 0 0 1 -0.96916,-0.96916 0.96916396,0.96916396 0 0 1 0.96916,-0.96915 z" /><path
         id="path27"
         style="fill:#c8ab37;stroke-width:0.370123"
         d="m 228.72301,196.27159 a 1.4537461,1.4537461 0 0 0 -1.4538,1.45379 1.4537461,1.4537461 0 0 0 1.4538,1.45368 1.4537461,1.4537461 0 0 0 1.45368,-1.45368 1.4537461,1.4537461 0 0 0 -1.45368,-1.45379 z m 0,0.48464 a 0.96916396,0.96916396 0 0 1 0.96916,0.96915 0.96916396,0.96916396 0 0 1 -0.96916,0.96916 0.96916396,0.96916396 0 0 1 -0.96916,-0.96916 0.96916396,0.96916396 0 0 1 0.96916,-0.96915 z" /><path
         id="path28"
         style="fill:#a0892c;stroke-width:0.462656"
         d="m 228.72301,201.11442 a 1.8171827,1.8171827 0 0 0 -1.81722,1.81721 1.8171827,1.8171827 0 0 0 1.81722,1.8171 1.8171827,1.8171827 0 0 0 1.81709,-1.8171 1.8171827,1.8171827 0 0 0 -1.81709,-1.81721 z m 0,0.84806 a 0.96916396,0.96916396 0 0 1 0.96916,0.96915 0.96916396,0.96916396 0 0 1 -0.96916,0.96916 0.96916396,0.96916396 0 0 1 -0.96916,-0.96916 0.96916396,0.96916396 0 0 1 0.96916,-0.96915 z" /><path
         id="path29"
         style="fill:#c8ab37;stroke-width:0.370123"
         d="m 228.72301,201.47784 a 1.4537461,1.4537461 0 0 0 -1.4538,1.45379 1.4537461,1.4537461 0 0 0 1.4538,1.45368 1.4537461,1.4537461 0 0 0 1.45368,-1.45368 1.4537461,1.4537461 0 0 0 -1.45368,-1.45379 z m 0,0.48464 a 0.96916396,0.96916396 0 0 1 0.96916,0.96915 0.96916396,0.96916396 0 0 1 -0.96916,0.96916 0.96916396,0.96916396 0 0 1 -0.96916,-0.96916 0.96916396,0.96916396 0 0 1 0.96916,-0.96915 z" /><path
         id="path30"
         style="fill:#a0892c;stroke-width:0.462656"
         d="m 228.72301,206.32068 a 1.8171827,1.8171827 0 0 0 -1.81722,1.81721 1.8171827,1.8171827 0 0 0 1.81722,1.8171 1.8171827,1.8171827 0 0 0 1.81709,-1.8171 1.8171827,1.8171827 0 0 0 -1.81709,-1.81721 z m 0,0.84806 a 0.96916396,0.96916396 0 0 1 0.96916,0.96915 0.96916396,0.96916396 0 0 1 -0.96916,0.96916 0.96916396,0.96916396 0 0 1 -0.96916,-0.96916 0.96916396,0.96916396 0 0 1 0.96916,-0.96915 z" /><path
         id="path31"
         style="fill:#c8ab37;stroke-width:0.370123"
         d="m 228.72301,206.6841 a 1.4537461,1.4537461 0 0 0 -1.4538,1.45379 1.4537461,1.4537461 0 0 0 1.4538,1.45368 1.4537461,1.4537461 0 0 0 1.45368,-1.45368 1.4537461,1.4537461 0 0 0 -1.45368,-1.45379 z m 0,0.48464 a 0.96916396,0.96916396 0 0 1 0.96916,0.96915 0.96916396,0.96916396 0 0 1 -0.96916,0.96916 0.96916396,0.96916396 0 0 1 -0.96916,-0.96916 0.96916396,0.96916396 0 0 1 0.96916,-0.96915 z" /></g><g
       id="g44"
       transform="matrix(0.66064248,0,0,0.66064248,327.24606,88.364699)"><rect
         style="opacity:1;fill:#b3b3b3;stroke-width:2.75568"
         id="rect34"
         width="16.688538"
         height="61.000214"
         x="-114.89974"
         y="40.20359"
         ry="4.2449999" /><g
         id="g43"
         transform="translate(-0.43630621,1.2421065)"><g
           id="g36"
           transform="matrix(0.6061154,0,0,0.6061154,-76.125327,24.506197)"><g
             id="g35"><path
               id="path34"
               style="opacity:1;fill:#a0892c;stroke-width:1.95652"
               d="m -49.485099,33.460144 a 7.6846633,7.6846633 0 0 0 -7.684802,7.684802 7.6846633,7.6846633 0 0 0 7.684802,7.684285 7.6846633,7.6846633 0 0 0 7.684285,-7.684285 7.6846633,7.6846633 0 0 0 -7.684285,-7.684802 z m 0,3.586344 a 4.0984864,4.0984864 0 0 1 4.098458,4.098458 4.0984864,4.0984864 0 0 1 -4.098458,4.098458 4.0984864,4.0984864 0 0 1 -4.098458,-4.098458 4.0984864,4.0984864 0 0 1 4.098458,-4.098458 z" /><path
               id="path35"
               style="opacity:1;fill:#c8ab37;stroke-width:1.56521"
               d="m -49.485099,34.997001 a 6.1477304,6.1477304 0 0 0 -6.147945,6.147945 6.1477304,6.1477304 0 0 0 6.147945,6.147428 6.1477304,6.1477304 0 0 0 6.147428,-6.147428 6.1477304,6.1477304 0 0 0 -6.147428,-6.147945 z m 0,2.049487 a 4.0984864,4.0984864 0 0 1 4.098458,4.098458 4.0984864,4.0984864 0 0 1 -4.098458,4.098458 4.0984864,4.0984864 0 0 1 -4.098458,-4.098458 4.0984864,4.0984864 0 0 1 4.098458,-4.098458 z" /><circle
               style="opacity:1;fill:#ff0000;stroke-width:1.04347"
               id="circle35"
               cx="-49.485245"
               cy="41.144722"
               r="4.0984864" /></g></g><g
           id="g38"
           transform="matrix(0.6061154,0,0,0.6061154,-76.125327,37.85084)"><g
             id="g37"><path
               id="path36"
               style="opacity:1;fill:#a0892c;stroke-width:1.95652"
               d="m -49.485099,33.460144 a 7.6846633,7.6846633 0 0 0 -7.684802,7.684802 7.6846633,7.6846633 0 0 0 7.684802,7.684285 7.6846633,7.6846633 0 0 0 7.684285,-7.684285 7.6846633,7.6846633 0 0 0 -7.684285,-7.684802 z m 0,3.586344 a 4.0984864,4.0984864 0 0 1 4.098458,4.098458 4.0984864,4.0984864 0 0 1 -4.098458,4.098458 4.0984864,4.0984864 0 0 1 -4.098458,-4.098458 4.0984864,4.0984864 0 0 1 4.098458,-4.098458 z" /><path
               id="path37"
               style="opacity:1;fill:#c8ab37;stroke-width:1.56521"
               d="m -49.485099,34.997001 a 6.1477304,6.1477304 0 0 0 -6.147945,6.147945 6.1477304,6.1477304 0 0 0 6.147945,6.147428 6.1477304,6.1477304 0 0 0 6.147428,-6.147428 6.1477304,6.1477304 0 0 0 -6.147428,-6.147945 z m 0,2.049487 a 4.0984864,4.0984864 0 0 1 4.098458,4.098458 4.0984864,4.0984864 0 0 1 -4.098458,4.098458 4.0984864,4.0984864 0 0 1 -4.098458,-4.098458 4.0984864,4.0984864 0 0 1 4.098458,-4.098458 z" /><circle
               style="opacity:1;fill:#ff0000;stroke-width:1.04347"
               id="circle37"
               cx="-49.485245"
               cy="41.144722"
               r="4.0984864" /></g></g><g
           id="g40"
           transform="matrix(0.6061154,0,0,0.6061154,-76.125327,51.195483)"><g
             id="g39"><path
               id="path38"
               style="opacity:1;fill:#a0892c;stroke-width:1.95652"
               d="m -49.485099,33.460144 a 7.6846633,7.6846633 0 0 0 -7.684802,7.684802 7.6846633,7.6846633 0 0 0 7.684802,7.684285 7.6846633,7.6846633 0 0 0 7.684285,-7.684285 7.6846633,7.6846633 0 0 0 -7.684285,-7.684802 z m 0,3.586344 a 4.0984864,4.0984864 0 0 1 4.098458,4.098458 4.0984864,4.0984864 0 0 1 -4.098458,4.098458 4.0984864,4.0984864 0 0 1 -4.098458,-4.098458 4.0984864,4.0984864 0 0 1 4.098458,-4.098458 z" /><path
               id="path39"
               style="opacity:1;fill:#c8ab37;stroke-width:1.56521"
               d="m -49.485099,34.997001 a 6.1477304,6.1477304 0 0 0 -6.147945,6.147945 6.1477304,6.1477304 0 0 0 6.147945,6.147428 6.1477304,6.1477304 0 0 0 6.147428,-6.147428 6.1477304,6.1477304 0 0 0 -6.147428,-6.147945 z m 0,2.049487 a 4.0984864,4.0984864 0 0 1 4.098458,4.098458 4.0984864,4.0984864 0 0 1 -4.098458,4.098458 4.0984864,4.0984864 0 0 1 -4.098458,-4.098458 4.0984864,4.0984864 0 0 1 4.098458,-4.098458 z" /><circle
               style="opacity:1;fill:#ff0000;stroke-width:1.04347"
               id="circle39"
               cx="-49.485245"
               cy="41.144722"
               r="4.0984864" /></g></g><g
           id="g42"
           transform="matrix(0.6061154,0,0,0.6061154,-76.125327,64.540127)"><g
             id="g41"><path
               id="path40"
               style="opacity:1;fill:#a0892c;stroke-width:1.95652"
               d="m -49.485099,33.460144 a 7.6846633,7.6846633 0 0 0 -7.684802,7.684802 7.6846633,7.6846633 0 0 0 7.684802,7.684285 7.6846633,7.6846633 0 0 0 7.684285,-7.684285 7.6846633,7.6846633 0 0 0 -7.684285,-7.684802 z m 0,3.586344 a 4.0984864,4.0984864 0 0 1 4.098458,4.098458 4.0984864,4.0984864 0 0 1 -4.098458,4.098458 4.0984864,4.0984864 0 0 1 -4.098458,-4.098458 4.0984864,4.0984864 0 0 1 4.098458,-4.098458 z" /><path
               id="path41"
               style="opacity:1;fill:#c8ab37;stroke-width:1.56521"
               d="m -49.485099,34.997001 a 6.1477304,6.1477304 0 0 0 -6.147945,6.147945 6.1477304,6.1477304 0 0 0 6.147945,6.147428 6.1477304,6.1477304 0 0 0 6.147428,-6.147428 6.1477304,6.1477304 0 0 0 -6.147428,-6.147945 z m 0,2.049487 a 4.0984864,4.0984864 0 0 1 4.098458,4.098458 4.0984864,4.0984864 0 0 1 -4.098458,4.098458 4.0984864,4.0984864 0 0 1 -4.098458,-4.098458 4.0984864,4.0984864 0 0 1 4.098458,-4.098458 z" /><circle
               style="opacity:1;fill:#ff0000;stroke-width:1.04347"
               id="circle41"
               cx="-49.485245"
               cy="41.144722"
               r="4.0984864" /></g></g></g><g
         id="g81"
         transform="translate(-0.43630621,1.2421065)"><g
           id="g74"
           transform="matrix(0.6061154,0,0,0.6061154,-76.125327,24.506197)"><g
             id="g73"><path
               id="path72"
               style="opacity:1;fill:#a0892c;stroke-width:1.95652"
               d="m -49.485099,33.460144 a 7.6846633,7.6846633 0 0 0 -7.684802,7.684802 7.6846633,7.6846633 0 0 0 7.684802,7.684285 7.6846633,7.6846633 0 0 0 7.684285,-7.684285 7.6846633,7.6846633 0 0 0 -7.684285,-7.684802 z m 0,3.586344 a 4.0984864,4.0984864 0 0 1 4.098458,4.098458 4.0984864,4.0984864 0 0 1 -4.098458,4.098458 4.0984864,4.0984864 0 0 1 -4.098458,-4.098458 4.0984864,4.0984864 0 0 1 4.098458,-4.098458 z" /><path
               id="path73"
               style="opacity:1;fill:#c8ab37;stroke-width:1.56521"
               d="m -49.485099,34.997001 a 6.1477304,6.1477304 0 0 0 -6.147945,6.147945 6.1477304,6.1477304 0 0 0 6.147945,6.147428 6.1477304,6.1477304 0 0 0 6.147428,-6.147428 6.1477304,6.1477304 0 0 0 -6.147428,-6.147945 z m 0,2.049487 a 4.0984864,4.0984864 0 0 1 4.098458,4.098458 4.0984864,4.0984864 0 0 1 -4.098458,4.098458 4.0984864,4.0984864 0 0 1 -4.098458,-4.098458 4.0984864,4.0984864 0 0 1 4.098458,-4.098458 z" /><circle
               style="opacity:1;fill:#ff0000;stroke-width:1.04347"
               id="circle73"
               cx="-49.485245"
               cy="41.144722"
               r="4.0984864" /></g></g><g
           id="g76"
           transform="matrix(0.6061154,0,0,0.6061154,-76.125327,37.85084)"><g
             id="g75"><path
               id="path74"
               style="opacity:1;fill:#a0892c;stroke-width:1.95652"
               d="m -49.485099,33.460144 a 7.6846633,7.6846633 0 0 0 -7.684802,7.684802 7.6846633,7.6846633 0 0 0 7.684802,7.684285 7.6846633,7.6846633 0 0 0 7.684285,-7.684285 7.6846633,7.6846633 0 0 0 -7.684285,-7.684802 z m 0,3.586344 a 4.0984864,4.0984864 0 0 1 4.098458,4.098458 4.0984864,4.0984864 0 0 1 -4.098458,4.098458 4.0984864,4.0984864 0 0 1 -4.098458,-4.098458 4.0984864,4.0984864 0 0 1 4.098458,-4.098458 z" /><path
               id="path75"
               style="opacity:1;fill:#c8ab37;stroke-width:1.56521"
               d="m -49.485099,34.997001 a 6.1477304,6.1477304 0 0 0 -6.147945,6.147945 6.1477304,6.1477304 0 0 0 6.147945,6.147428 6.1477304,6.1477304 0 0 0 6.147428,-6.147428 6.1477304,6.1477304 0 0 0 -6.147428,-6.147945 z m 0,2.049487 a 4.0984864,4.0984864 0 0 1 4.098458,4.098458 4.0984864,4.0984864 0 0 1 -4.098458,4.098458 4.0984864,4.0984864 0 0 1 -4.098458,-4.098458 4.0984864,4.0984864 0 0 1 4.098458,-4.098458 z" /><circle
               style="opacity:1;fill:#ff0000;stroke-width:1.04347"
               id="circle75"
               cx="-49.485245"
               cy="41.144722"
               r="4.0984864" /></g></g><g
           id="g78"
           transform="matrix(0.6061154,0,0,0.6061154,-76.125327,51.195483)"><g
             id="g77"><path
               id="path76"
               style="opacity:1;fill:#a0892c;stroke-width:1.95652"
               d="m -49.485099,33.460144 a 7.6846633,7.6846633 0 0 0 -7.684802,7.684802 7.6846633,7.6846633 0 0 0 7.684802,7.684285 7.6846633,7.6846633 0 0 0 7.684285,-7.684285 7.6846633,7.6846633 0 0 0 -7.684285,-7.684802 z m 0,3.586344 a 4.0984864,4.0984864 0 0 1 4.098458,4.098458 4.0984864,4.0984864 0 0 1 -4.098458,4.098458 4.0984864,4.0984864 0 0 1 -4.098458,-4.098458 4.0984864,4.0984864 0 0 1 4.098458,-4.098458 z" /><path
               id="path77"
               style="opacity:1;fill:#c8ab37;stroke-width:1.56521"
               d="m -49.485099,34.997001 a 6.1477304,6.1477304 0 0 0 -6.147945,6.147945 6.1477304,6.1477304 0 0 0 6.147945,6.147428 6.1477304,6.1477304 0 0 0 6.147428,-6.147428 6.1477304,6.1477304 0 0 0 -6.147428,-6.147945 z m 0,2.049487 a 4.0984864,4.0984864 0 0 1 4.098458,4.098458 4.0984864,4.0984864 0 0 1 -4.098458,4.098458 4.0984864,4.0984864 0 0 1 -4.098458,-4.098458 4.0984864,4.0984864 0 0 1 4.098458,-4.098458 z" /><circle
               style="opacity:1;fill:#ff0000;stroke-width:1.04347"
               id="circle77"
               cx="-49.485245"
               cy="41.144722"
               r="4.0984864" /></g></g><g
           id="g80"
           transform="matrix(0.6061154,0,0,0.6061154,-76.125327,64.540127)"><g
             id="g79"><path
               id="path78"
               style="opacity:1;fill:#a0892c;stroke-width:1.95652"
               d="m -49.485099,33.460144 a 7.6846633,7.6846633 0 0 0 -7.684802,7.684802 7.6846633,7.6846633 0 0 0 7.684802,7.684285 7.6846633,7.6846633 0 0 0 7.684285,-7.684285 7.6846633,7.6846633 0 0 0 -7.684285,-7.684802 z m 0,3.586344 a 4.0984864,4.0984864 0 0 1 4.098458,4.098458 4.0984864,4.0984864 0 0 1 -4.098458,4.098458 4.0984864,4.0984864 0 0 1 -4.098458,-4.098458 4.0984864,4.0984864 0 0 1 4.098458,-4.098458 z" /><path
               id="path79"
               style="opacity:1;fill:#c8ab37;stroke-width:1.56521"
               d="m -49.485099,34.997001 a 6.1477304,6.1477304 0 0 0 -6.147945,6.147945 6.1477304,6.1477304 0 0 0 6.147945,6.147428 6.1477304,6.1477304 0 0 0 6.147428,-6.147428 6.1477304,6.1477304 0 0 0 -6.147428,-6.147945 z m 0,2.049487 a 4.0984864,4.0984864 0 0 1 4.098458,4.098458 4.0984864,4.0984864 0 0 1 -4.098458,4.098458 4.0984864,4.0984864 0 0 1 -4.098458,-4.098458 4.0984864,4.0984864 0 0 1 4.098458,-4.098458 z" /><circle
               style="opacity:1;fill:#ff0000;stroke-width:1.04347"
               id="circle79"
               cx="-49.485245"
               cy="41.144722"
               r="4.0984864" /></g></g></g></g><text
       xml:space="preserve"
       style="font-style:normal;font-variant:normal;font-weight:normal;font-stretch:normal;font-size:3.96094px;font-family:'Nimbus Mono PS';-inkscape-font-specification:'Nimbus Mono PS, Normal';font-variant-ligatures:normal;font-variant-caps:normal;font-variant-numeric:normal;font-variant-east-asian:normal;text-align:start;writing-mode:lr-tb;direction:ltr;text-anchor:start;fill:#ffffff;stroke:none;stroke-width:0.0480326;stroke-dasharray:none"
       x="-211.71564"
       y="223.68321"
       id="text47"
       transform="rotate(-90)"><tspan
         sodipodi:role="line"
         id="tspan47"
         style="fill:#ffffff;stroke-width:0.0480326"
         x="-211.71564"
         y="223.68321">UART</tspan></text><rect
       style="fill:#999999;stroke:none;stroke-width:1.216;stroke-dasharray:none"
       id="rect47"
       width="20.966492"
       height="33.924496"
       x="114.31673"
       y="-201.48863"
       ry="1.8074561"
       transform="rotate(90)" /><g
       id="g57"><path
         id="path34-1"
         style="fill:#a0892c;stroke-width:0.459395"
         d="m 221.74778,134.48789 a 1.8043739,1.8043739 0 0 0 -1.8044,1.8044 1.8043739,1.8043739 0 0 0 1.8044,1.80429 1.8043739,1.8043739 0 0 0 1.80429,-1.80429 1.8043739,1.8043739 0 0 0 -1.80429,-1.8044 z m 0,0.84208 a 0.9623326,0.9623326 0 0 1 0.96233,0.96232 0.9623326,0.9623326 0 0 1 -0.96233,0.96233 0.9623326,0.9623326 0 0 1 -0.96232,-0.96233 0.9623326,0.9623326 0 0 1 0.96232,-0.96232 z" /><path
         id="path35-5"
         style="fill:#c8ab37;stroke-width:0.367514"
         d="m 221.74778,134.84874 a 1.4434991,1.4434991 0 0 0 -1.44355,1.44355 1.4434991,1.4434991 0 0 0 1.44355,1.44343 1.4434991,1.4434991 0 0 0 1.44343,-1.44343 1.4434991,1.4434991 0 0 0 -1.44343,-1.44355 z m 0,0.48123 a 0.9623326,0.9623326 0 0 1 0.96233,0.96232 0.9623326,0.9623326 0 0 1 -0.96233,0.96233 0.9623326,0.9623326 0 0 1 -0.96232,-0.96233 0.9623326,0.9623326 0 0 1 0.96232,-0.96232 z" /><path
         id="path47"
         style="fill:#a0892c;stroke-width:0.459395"
         d="m 230.43861,134.48789 a 1.8043739,1.8043739 0 0 0 -1.8044,1.8044 1.8043739,1.8043739 0 0 0 1.8044,1.80429 1.8043739,1.8043739 0 0 0 1.80429,-1.80429 1.8043739,1.8043739 0 0 0 -1.80429,-1.8044 z m 0,0.84208 a 0.9623326,0.9623326 0 0 1 0.96233,0.96232 0.9623326,0.9623326 0 0 1 -0.96233,0.96233 0.9623326,0.9623326 0 0 1 -0.96232,-0.96233 0.9623326,0.9623326 0 0 1 0.96232,-0.96232 z" /><path
         id="path48"
         style="fill:#c8ab37;stroke-width:0.367514"
         d="m 230.43861,134.84874 a 1.4434991,1.4434991 0 0 0 -1.44355,1.44355 1.4434991,1.4434991 0 0 0 1.44355,1.44343 1.4434991,1.4434991 0 0 0 1.44343,-1.44343 1.4434991,1.4434991 0 0 0 -1.44343,-1.44355 z m 0,0.48123 a 0.9623326,0.9623326 0 0 1 0.96233,0.96232 0.9623326,0.9623326 0 0 1 -0.96233,0.96233 0.9623326,0.9623326 0 0 1 -0.96232,-0.96233 0.9623326,0.9623326 0 0 1 0.96232,-0.96232 z" /><path
         id="path49"
         style="fill:#a0892c;stroke-width:0.459395"
         d="m 226.09319,129.94135 a 1.8043739,1.8043739 0 0 0 -1.8044,1.8044 1.8043739,1.8043739 0 0 0 1.8044,1.80429 1.8043739,1.8043739 0 0 0 1.80429,-1.80429 1.8043739,1.8043739 0 0 0 -1.80429,-1.8044 z m 0,0.84208 a 0.9623326,0.9623326 0 0 1 0.96233,0.96232 0.9623326,0.9623326 0 0 1 -0.96233,0.96233 0.9623326,0.9623326 0 0 1 -0.96232,-0.96233 0.9623326,0.9623326 0 0 1 0.96232,-0.96232 z" /><path
         id="path50"
         style="fill:#c8ab37;stroke-width:0.367514"
         d="m 226.09319,130.3022 a 1.4434991,1.4434991 0 0 0 -1.44355,1.44355 1.4434991,1.4434991 0 0 0 1.44355,1.44343 1.4434991,1.4434991 0 0 0 1.44343,-1.44343 1.4434991,1.4434991 0 0 0 -1.44343,-1.44355 z m 0,0.48123 a 0.9623326,0.9623326 0 0 1 0.96233,0.96232 0.9623326,0.9623326 0 0 1 -0.96233,0.96233 0.9623326,0.9623326 0 0 1 -0.96232,-0.96233 0.9623326,0.9623326 0 0 1 0.96232,-0.96232 z" /><path
         id="path52"
         style="fill:#a0892c;stroke-width:0.459395"
         d="m 226.09319,139.03442 a 1.8043739,1.8043739 0 0 0 -1.8044,1.8044 1.8043739,1.8043739 0 0 0 1.8044,1.80429 1.8043739,1.8043739 0 0 0 1.80429,-1.80429 1.8043739,1.8043739 0 0 0 -1.80429,-1.8044 z m 0,0.84208 a 0.9623326,0.9623326 0 0 1 0.96233,0.96232 0.9623326,0.9623326 0 0 1 -0.96233,0.96233 0.9623326,0.9623326 0 0 1 -0.96232,-0.96233 0.9623326,0.9623326 0 0 1 0.96232,-0.96232 z" /><path
         id="path53"
         style="fill:#c8ab37;stroke-width:0.367514"
         d="m 226.09319,139.39527 a 1.4434991,1.4434991 0 0 0 -1.44355,1.44355 1.4434991,1.4434991 0 0 0 1.44355,1.44343 1.4434991,1.4434991 0 0 0 1.44343,-1.44343 1.4434991,1.4434991 0 0 0 -1.44343,-1.44355 z m 0,0.48123 a 0.9623326,0.9623326 0 0 1 0.96233,0.96232 0.9623326,0.9623326 0 0 1 -0.96233,0.96233 0.9623326,0.9623326 0 0 1 -0.96232,-0.96233 0.9623326,0.9623326 0 0 1 0.96232,-0.96232 z" /></g><g
       id="g56"
       transform="matrix(0.70212765,0,0,0.70212765,13.013981,30.190607)"><rect
         style="opacity:1;fill:#333333;stroke:none;stroke-width:1.07834;stroke-dasharray:none"
         id="rect55"
         width="19.535307"
         height="19.535307"
         x="35.950676"
         y="255.34341"
         ry="1.6028385" /><rect
         style="opacity:1;fill:#4d4d4d;stroke:none;stroke-width:0.744513;stroke-dasharray:none"
         id="rect56"
         width="11.22241"
         height="16.21015"
         x="40.107124"
         y="-276.92038"
         ry="1.3300151"
         transform="scale(1,-1)" /></g><rect
       style="fill:#333333;stroke:none;stroke-width:1.08292;stroke-dasharray:none"
       id="rect57"
       width="6.1847239"
       height="6.1847239"
       x="167.94453"
       y="104.45389"
       ry="0.63188338"
       transform="rotate(45)" /><g
       id="g59"
       transform="matrix(0.57184906,0,0,0.57184906,58.685081,135.85311)"><rect
         style="opacity:1;fill:#cccccc;stroke:none;stroke-width:1.216;stroke-dasharray:none"
         id="rect58"
         width="8.8432426"
         height="3.7899609"
         x="-14.532097"
         y="117.06564"
         ry="0.63188332" /><rect
         style="opacity:1;fill:#333333;stroke:none;stroke-width:0.94191;stroke-dasharray:none"
         id="rect59"
         width="5.3059459"
         height="3.7899609"
         x="-12.763449"
         y="117.06564"
         ry="0.63188332" /></g><g
       id="g61"
       transform="matrix(0,0.57184906,-0.57184906,0,104.16329,205.87606)"><rect
         style="opacity:1;fill:#cccccc;stroke:none;stroke-width:1.216;stroke-dasharray:none"
         id="rect60"
         width="8.8432426"
         height="3.7899609"
         x="-14.532097"
         y="117.06564"
         ry="0.63188332" /><rect
         style="opacity:1;fill:#333333;stroke:none;stroke-width:0.94191;stroke-dasharray:none"
         id="rect61"
         width="5.3059459"
         height="3.7899609"
         x="-12.763449"
         y="117.06564"
         ry="0.63188332" /></g><g
       id="g63"
       transform="matrix(0.57184906,0,0,0.57184906,59.225973,127.06991)"><rect
         style="opacity:1;fill:#cccccc;stroke:none;stroke-width:1.216;stroke-dasharray:none"
         id="rect62"
         width="8.8432426"
         height="3.7899609"
         x="-14.532097"
         y="117.06564"
         ry="0.63188332" /><rect
         style="opacity:1;fill:#333333;stroke:none;stroke-width:0.94191;stroke-dasharray:none"
         id="rect63"
         width="5.3059459"
         height="3.7899609"
         x="-12.763449"
         y="117.06564"
         ry="0.63188332" /></g><g
       id="g67"
       transform="matrix(0.32625453,0,0,0.32625453,43.997089,168.08452)"><rect
         style="opacity:1;fill:#cccccc;stroke:none;stroke-width:1.216;stroke-dasharray:none"
         id="rect66"
         width="8.8432426"
         height="3.7899609"
         x="-14.532097"
         y="117.06564"
         ry="0.63188332" /><rect
         style="opacity:1;fill:#d4aa00;stroke:none;stroke-width:1.00295;stroke-dasharray:none"
         id="rect67"
         width="6.0159745"
         height="3.7899609"
         x="-13.118463"
         y="117.06564"
         ry="0" /></g><g
       id="g69"
       transform="matrix(0.32625453,0,0,0.32625453,43.93327,165.40411)"><rect
         style="opacity:1;fill:#cccccc;stroke:none;stroke-width:1.216;stroke-dasharray:none"
         id="rect68"
         width="8.8432426"
         height="3.7899609"
         x="-14.532097"
         y="117.06564"
         ry="0.63188332" /><rect
         style="opacity:1;fill:#d4aa00;stroke:none;stroke-width:1.00295;stroke-dasharray:none"
         id="rect69"
         width="6.0159745"
         height="3.7899609"
         x="-13.118463"
         y="117.06564"
         ry="0" /></g><g
       id="g71"
       transform="matrix(0.32625453,0,0,0.32625453,46.166947,150.81874)"><rect
         style="opacity:1;fill:#cccccc;stroke:none;stroke-width:1.216;stroke-dasharray:none"
         id="rect70"
         width="8.8432426"
         height="3.7899609"
         x="-14.532097"
         y="117.06564"
         ry="0.63188332" /><rect
         style="opacity:1;fill:#d4aa00;stroke:none;stroke-width:1.00295;stroke-dasharray:none"
         id="rect71"
         width="6.0159745"
         height="3.7899609"
         x="-13.118463"
         y="117.06564"
         ry="0" /></g><g
       id="g65"
       transform="matrix(0.51388965,0,0,0.51388965,42.057026,131.94379)"><rect
         style="opacity:1;fill:#cccccc;stroke:none;stroke-width:1.216;stroke-dasharray:none"
         id="rect64"
         width="8.8432426"
         height="3.7899609"
         x="-14.532097"
         y="117.06564"
         ry="0.63188332" /><rect
         style="opacity:1;fill:#d4aa00;stroke:none;stroke-width:1.00295;stroke-dasharray:none"
         id="rect65"
         width="6.0159745"
         height="3.7899609"
         x="-13.118463"
         y="117.06564"
         ry="0" /></g><rect
       style="fill:#999999;stroke:#4d4d4d;stroke-width:0.626;stroke-dasharray:none"
       id="rect72"
       width="23.058321"
       height="18.446659"
       x="16.327305"
       y="113.4422" /><g
       id="g82"><path
         id="path72-0"
         style="fill:#a0892c;stroke-width:0.497188"
         d="m 57.2456,211.46014 a 1.9528146,1.9528146 0 0 0 -1.952849,1.95285 1.9528146,1.9528146 0 0 0 1.952849,1.95272 1.9528146,1.9528146 0 0 0 1.952719,-1.95272 1.9528146,1.9528146 0 0 0 -1.952719,-1.95285 z m 0,0.91136 a 1.0415009,1.0415009 0 0 1 1.041494,1.04149 1.0415009,1.0415009 0 0 1 -1.041494,1.04149 1.0415009,1.0415009 0 0 1 -1.041493,-1.04149 1.0415009,1.0415009 0 0 1 1.041493,-1.04149 z" /><path
         id="path73-4"
         style="fill:#c8ab37;stroke-width:0.397749"
         d="m 57.2456,211.85068 a 1.5622516,1.5622516 0 0 0 -1.562306,1.56231 1.5622516,1.5622516 0 0 0 1.562306,1.56217 1.5622516,1.5622516 0 0 0 1.562175,-1.56217 1.5622516,1.5622516 0 0 0 -1.562175,-1.56231 z m 0,0.52082 a 1.0415009,1.0415009 0 0 1 1.041494,1.04149 1.0415009,1.0415009 0 0 1 -1.041494,1.04149 1.0415009,1.0415009 0 0 1 -1.041493,-1.04149 1.0415009,1.0415009 0 0 1 1.041493,-1.04149 z" /><path
         id="path74-7"
         style="fill:#a0892c;stroke-width:0.497188"
         d="m 57.2456,217.05498 a 1.9528146,1.9528146 0 0 0 -1.952849,1.95285 1.9528146,1.9528146 0 0 0 1.952849,1.95272 1.9528146,1.9528146 0 0 0 1.952719,-1.95272 1.9528146,1.9528146 0 0 0 -1.952719,-1.95285 z m 0,0.91136 a 1.0415009,1.0415009 0 0 1 1.041494,1.04149 1.0415009,1.0415009 0 0 1 -1.041494,1.04149 1.0415009,1.0415009 0 0 1 -1.041493,-1.04149 1.0415009,1.0415009 0 0 1 1.041493,-1.04149 z" /><path
         id="path75-6"
         style="fill:#c8ab37;stroke-width:0.397749"
         d="m 57.2456,217.44552 a 1.5622516,1.5622516 0 0 0 -1.562306,1.56231 1.5622516,1.5622516 0 0 0 1.562306,1.56217 1.5622516,1.5622516 0 0 0 1.562175,-1.56217 1.5622516,1.5622516 0 0 0 -1.562175,-1.56231 z m 0,0.52082 a 1.0415009,1.0415009 0 0 1 1.041494,1.04149 1.0415009,1.0415009 0 0 1 -1.041494,1.04149 1.0415009,1.0415009 0 0 1 -1.041493,-1.04149 1.0415009,1.0415009 0 0 1 1.041493,-1.04149 z" /></g><text
       xml:space="preserve"
       style="font-style:normal;font-variant:normal;font-weight:normal;font-stretch:normal;font-size:2.82223px;font-family:'Nimbus Mono PS';-inkscape-font-specification:'Nimbus Mono PS, Normal';font-variant-ligatures:normal;font-variant-caps:normal;font-variant-numeric:normal;font-variant-east-asian:normal;text-align:start;writing-mode:lr-tb;direction:ltr;text-anchor:start;fill:#999999;stroke:none;stroke-width:1.216;stroke-dasharray:none"
       x="60.925747"
       y="220.19519"
       id="text81"><tspan
         sodipodi:role="line"
         id="tspan81"
         style="fill:#f9f9f9;stroke-width:1.216"
         x="60.925747"
         y="220.19519">GND</tspan></text><text
       xml:space="preserve"
       style="font-style:normal;font-variant:normal;font-weight:normal;font-stretch:normal;font-size:2.82223px;font-family:'Nimbus Mono PS';-inkscape-font-specification:'Nimbus Mono PS, Normal';font-variant-ligatures:normal;font-variant-caps:normal;font-variant-numeric:normal;font-variant-east-asian:normal;text-align:start;writing-mode:lr-tb;direction:ltr;text-anchor:start;fill:#999999;stroke:none;stroke-width:1.216;stroke-dasharray:none"
       x="60.925747"
       y="214.75626"
       id="text82"><tspan
         sodipodi:role="line"
         id="tspan82"
         style="fill:#f9f9f9;stroke-width:1.216"
         x="60.925747"
         y="214.75626">5v</tspan></text><path
       id="path72-7"
       style="fill:#a0892c;stroke-width:0.520365"
       d="m 130.20991,145.09061 a 2.0438491,2.0438491 0 0 0 -2.04388,2.04388 2.0438491,2.0438491 0 0 0 2.04388,2.04375 2.0438491,2.0438491 0 0 0 2.04375,-2.04375 2.0438491,2.0438491 0 0 0 -2.04375,-2.04388 z m 0,0.95384 a 1.0900527,1.0900527 0 0 1 1.09005,1.09004 1.0900527,1.0900527 0 0 1 -1.09005,1.09005 1.0900527,1.0900527 0 0 1 -1.09004,-1.09005 1.0900527,1.0900527 0 0 1 1.09004,-1.09004 z" /><path
       id="path73-5"
       style="fill:#c8ab37;stroke-width:0.416291"
       d="m 130.20991,145.49936 a 1.6350792,1.6350792 0 0 0 -1.63514,1.63513 1.6350792,1.6350792 0 0 0 1.63514,1.635 1.6350792,1.6350792 0 0 0 1.635,-1.635 1.6350792,1.6350792 0 0 0 -1.635,-1.63513 z m 0,0.54509 a 1.0900527,1.0900527 0 0 1 1.09005,1.09004 1.0900527,1.0900527 0 0 1 -1.09005,1.09005 1.0900527,1.0900527 0 0 1 -1.09004,-1.09005 1.0900527,1.0900527 0 0 1 1.09004,-1.09004 z" /><path
       id="path74-3"
       style="fill:#a0892c;stroke-width:0.520365"
       d="m 130.20991,150.94627 a 2.0438491,2.0438491 0 0 0 -2.04388,2.04388 2.0438491,2.0438491 0 0 0 2.04388,2.04375 2.0438491,2.0438491 0 0 0 2.04375,-2.04375 2.0438491,2.0438491 0 0 0 -2.04375,-2.04388 z m 0,0.95384 a 1.0900527,1.0900527 0 0 1 1.09005,1.09004 1.0900527,1.0900527 0 0 1 -1.09005,1.09005 1.0900527,1.0900527 0 0 1 -1.09004,-1.09005 1.0900527,1.0900527 0 0 1 1.09004,-1.09004 z" /><path
       id="path75-1"
       style="fill:#c8ab37;stroke-width:0.416291"
       d="m 130.20991,151.35502 a 1.6350792,1.6350792 0 0 0 -1.63514,1.63513 1.6350792,1.6350792 0 0 0 1.63514,1.635 1.6350792,1.6350792 0 0 0 1.635,-1.635 1.6350792,1.6350792 0 0 0 -1.635,-1.63513 z m 0,0.54509 a 1.0900527,1.0900527 0 0 1 1.09005,1.09004 1.0900527,1.0900527 0 0 1 -1.09005,1.09005 1.0900527,1.0900527 0 0 1 -1.09004,-1.09005 1.0900527,1.0900527 0 0 1 1.09004,-1.09004 z" /><path
       id="path76-4"
       style="fill:#a0892c;stroke-width:0.520365"
       d="m 130.20991,156.80192 a 2.0438491,2.0438491 0 0 0 -2.04388,2.04388 2.0438491,2.0438491 0 0 0 2.04388,2.04375 2.0438491,2.0438491 0 0 0 2.04375,-2.04375 2.0438491,2.0438491 0 0 0 -2.04375,-2.04388 z m 0,0.95384 a 1.0900527,1.0900527 0 0 1 1.09005,1.09004 1.0900527,1.0900527 0 0 1 -1.09005,1.09005 1.0900527,1.0900527 0 0 1 -1.09004,-1.09005 1.0900527,1.0900527 0 0 1 1.09004,-1.09004 z" /><path
       id="path77-3"
       style="fill:#c8ab37;stroke-width:0.416291"
       d="m 130.20991,157.21067 a 1.6350792,1.6350792 0 0 0 -1.63514,1.63513 1.6350792,1.6350792 0 0 0 1.63514,1.635 1.6350792,1.6350792 0 0 0 1.635,-1.635 1.6350792,1.6350792 0 0 0 -1.635,-1.63513 z m 0,0.54509 a 1.0900527,1.0900527 0 0 1 1.09005,1.09004 1.0900527,1.0900527 0 0 1 -1.09005,1.09005 1.0900527,1.0900527 0 0 1 -1.09004,-1.09005 1.0900527,1.0900527 0 0 1 1.09004,-1.09004 z" /><path
       id="path78-6"
       style="fill:#a0892c;stroke-width:0.520365"
       d="m 130.20991,162.65758 a 2.0438491,2.0438491 0 0 0 -2.04388,2.04388 2.0438491,2.0438491 0 0 0 2.04388,2.04375 2.0438491,2.0438491 0 0 0 2.04375,-2.04375 2.0438491,2.0438491 0 0 0 -2.04375,-2.04388 z m 0,0.95384 a 1.0900527,1.0900527 0 0 1 1.09005,1.09004 1.0900527,1.0900527 0 0 1 -1.09005,1.09005 1.0900527,1.0900527 0 0 1 -1.09004,-1.09005 1.0900527,1.0900527 0 0 1 1.09004,-1.09004 z" /><path
       id="path79-0"
       style="fill:#c8ab37;stroke-width:0.416291"
       d="m 130.20991,163.06633 a 1.6350792,1.6350792 0 0 0 -1.63514,1.63513 1.6350792,1.6350792 0 0 0 1.63514,1.635 1.6350792,1.6350792 0 0 0 1.635,-1.635 1.6350792,1.6350792 0 0 0 -1.635,-1.63513 z m 0,0.54509 a 1.0900527,1.0900527 0 0 1 1.09005,1.09004 1.0900527,1.0900527 0 0 1 -1.09005,1.09005 1.0900527,1.0900527 0 0 1 -1.09004,-1.09005 1.0900527,1.0900527 0 0 1 1.09004,-1.09004 z" /><path
       id="path82"
       style="fill:#a0892c;stroke-width:0.520365"
       d="m 124.01029,145.09061 a 2.0438491,2.0438491 0 0 0 -2.04388,2.04388 2.0438491,2.0438491 0 0 0 2.04388,2.04375 2.0438491,2.0438491 0 0 0 2.04375,-2.04375 2.0438491,2.0438491 0 0 0 -2.04375,-2.04388 z m 0,0.95384 a 1.0900527,1.0900527 0 0 1 1.09005,1.09004 1.0900527,1.0900527 0 0 1 -1.09005,1.09005 1.0900527,1.0900527 0 0 1 -1.09004,-1.09005 1.0900527,1.0900527 0 0 1 1.09004,-1.09004 z" /><path
       id="path83"
       style="fill:#c8ab37;stroke-width:0.416291"
       d="m 124.01029,145.49936 a 1.6350792,1.6350792 0 0 0 -1.63514,1.63513 1.6350792,1.6350792 0 0 0 1.63514,1.635 1.6350792,1.6350792 0 0 0 1.635,-1.635 1.6350792,1.6350792 0 0 0 -1.635,-1.63513 z m 0,0.54509 a 1.0900527,1.0900527 0 0 1 1.09005,1.09004 1.0900527,1.0900527 0 0 1 -1.09005,1.09005 1.0900527,1.0900527 0 0 1 -1.09004,-1.09005 1.0900527,1.0900527 0 0 1 1.09004,-1.09004 z" /><path
       id="path84"
       style="fill:#a0892c;stroke-width:0.520365"
       d="m 124.01029,150.94627 a 2.0438491,2.0438491 0 0 0 -2.04388,2.04388 2.0438491,2.0438491 0 0 0 2.04388,2.04375 2.0438491,2.0438491 0 0 0 2.04375,-2.04375 2.0438491,2.0438491 0 0 0 -2.04375,-2.04388 z m 0,0.95384 a 1.0900527,1.0900527 0 0 1 1.09005,1.09004 1.0900527,1.0900527 0 0 1 -1.09005,1.09005 1.0900527,1.0900527 0 0 1 -1.09004,-1.09005 1.0900527,1.0900527 0 0 1 1.09004,-1.09004 z" /><path
       id="path85"
       style="fill:#c8ab37;stroke-width:0.416291"
       d="m 124.01029,151.35502 a 1.6350792,1.6350792 0 0 0 -1.63514,1.63513 1.6350792,1.6350792 0 0 0 1.63514,1.635 1.6350792,1.6350792 0 0 0 1.635,-1.635 1.6350792,1.6350792 0 0 0 -1.635,-1.63513 z m 0,0.54509 a 1.0900527,1.0900527 0 0 1 1.09005,1.09004 1.0900527,1.0900527 0 0 1 -1.09005,1.09005 1.0900527,1.0900527 0 0 1 -1.09004,-1.09005 1.0900527,1.0900527 0 0 1 1.09004,-1.09004 z" /><path
       id="path86"
       style="fill:#a0892c;stroke-width:0.520365"
       d="m 124.01029,156.80192 a 2.0438491,2.0438491 0 0 0 -2.04388,2.04388 2.0438491,2.0438491 0 0 0 2.04388,2.04375 2.0438491,2.0438491 0 0 0 2.04375,-2.04375 2.0438491,2.0438491 0 0 0 -2.04375,-2.04388 z m 0,0.95384 a 1.0900527,1.0900527 0 0 1 1.09005,1.09004 1.0900527,1.0900527 0 0 1 -1.09005,1.09005 1.0900527,1.0900527 0 0 1 -1.09004,-1.09005 1.0900527,1.0900527 0 0 1 1.09004,-1.09004 z" /><path
       id="path87"
       style="fill:#c8ab37;stroke-width:0.416291"
       d="m 124.01029,157.21067 a 1.6350792,1.6350792 0 0 0 -1.63514,1.63513 1.6350792,1.6350792 0 0 0 1.63514,1.635 1.6350792,1.6350792 0 0 0 1.635,-1.635 1.6350792,1.6350792 0 0 0 -1.635,-1.63513 z m 0,0.54509 a 1.0900527,1.0900527 0 0 1 1.09005,1.09004 1.0900527,1.0900527 0 0 1 -1.09005,1.09005 1.0900527,1.0900527 0 0 1 -1.09004,-1.09005 1.0900527,1.0900527 0 0 1 1.09004,-1.09004 z" /><path
       id="path88"
       style="fill:#a0892c;stroke-width:0.520365"
       d="m 124.01029,162.65758 a 2.0438491,2.0438491 0 0 0 -2.04388,2.04388 2.0438491,2.0438491 0 0 0 2.04388,2.04375 2.0438491,2.0438491 0 0 0 2.04375,-2.04375 2.0438491,2.0438491 0 0 0 -2.04375,-2.04388 z m 0,0.95384 a 1.0900527,1.0900527 0 0 1 1.09005,1.09004 1.0900527,1.0900527 0 0 1 -1.09005,1.09005 1.0900527,1.0900527 0 0 1 -1.09004,-1.09005 1.0900527,1.0900527 0 0 1 1.09004,-1.09004 z" /><path
       id="path89"
       style="fill:#c8ab37;stroke-width:0.416291"
       d="m 124.01029,163.06633 a 1.6350792,1.6350792 0 0 0 -1.63514,1.63513 1.6350792,1.6350792 0 0 0 1.63514,1.635 1.6350792,1.6350792 0 0 0 1.635,-1.635 1.6350792,1.6350792 0 0 0 -1.635,-1.63513 z m 0,0.54509 a 1.0900527,1.0900527 0 0 1 1.09005,1.09004 1.0900527,1.0900527 0 0 1 -1.09005,1.09005 1.0900527,1.0900527 0 0 1 -1.09004,-1.09005 1.0900527,1.0900527 0 0 1 1.09004,-1.09004 z" /></g></svg>
